<svg id="Laag_1" data-name="Laag 1" xmlns="http://www.w3.org/2000/svg" viewBox="0 0 86.31 61.88"><defs><style>.cls-1,.cls-2,.cls-3{fill:#222221;}.cls-1{stroke:#fff;stroke-width:3px;}.cls-1,.cls-3{stroke-miterlimit:10;}.cls-3{stroke:#222221;stroke-width:6px;}</style></defs><path class="cls-1" d="M81.1,57.35l-4.66-8a26.45,26.45,0,0,0,6.72-12.41c3.2-13.67-4.65-27.2-17.53-30.21S39.72,12.37,36.52,26s4.66,27.2,17.54,30.21a22.88,22.88,0,0,0,15-1.63l4.24,7.26Zm-25-9.86c-8-1.88-12.88-10.58-10.82-19.4S55.55,13.62,63.58,15.5,76.46,26.07,74.4,34.89,64.13,49.36,56.11,47.49Z"/><polygon class="cls-2" points="38.98 41.07 27.15 10.16 9.47 56.3 3.1 56.3 22.93 4.13 31.34 4.13 43.71 36.67 38.98 41.07"/><line class="cls-3" x1="14.07" y1="35.91" x2="27.1" y2="35.91"/></svg>